Coordinates
version=1
nRows=16
nColumns=36
inDegrees=yes

Units are S.I. units (second, meters, Newtons, ...)
If the header above contains a line with 'inDegrees', this indicates whether rotational values are in degrees (yes) or radians (no).

endheader
time	pelvis_tilt	pelvis_list	pelvis_rotation	pelvis_tx	pelvis_ty	pelvis_tz	hip_flexion_r	hip_adduction_r	hip_rotation_r	knee_angle_r	knee_angle_r_beta	ankle_angle_r	subtalar_angle_r	mtp_angle_r	hip_flexion_l	hip_adduction_l	hip_rotation_l	knee_angle_l	knee_angle_l_beta	ankle_angle_l	subtalar_angle_l	mtp_angle_l	lumbar_extension	lumbar_bending	lumbar_rotation	arm_flex_r	arm_add_r	arm_rot_r	elbow_flex_r	pro_sup_r	arm_flex_l	arm_add_l	arm_rot_l	elbow_flex_l	pro_sup_l
      1.00000000	     -4.57945981	      0.72967791	      3.09703000	      1.13985427	      0.94194038	     -0.20542099	     28.60262197	      1.05611507	     -5.81536597	      3.26735937	      0.05702618	     -0.32465072	     -4.86151795	     -7.33165345	     -8.17519133	      4.60226674	     -9.14750638	      1.97937599	      0.03454663	     17.73337068	      3.46566916	     -7.33165345	     -0.46610303	     -4.76200083	    -12.75132961	     -4.62966784	     -0.67661588	    -12.69270178	     25.41001463	    100.67309937	     22.26515664	    -14.80422456	    -15.29447523	     48.40661668	    102.72917373
      1.01000000	     -4.80338713	      1.00398138	      2.94857886	      1.15097676	      0.93932256	     -0.20479327	     28.75305496	      0.94123853	     -5.52557832	      1.41337669	      0.02466808	      0.14196865	     -4.19997435	     -7.33352802	     -8.62248847	      4.83722726	     -9.12412306	      2.18848900	      0.03819634	     18.01367887	      3.37372413	     -7.33352802	     -0.29779873	     -5.07024438	    -12.72003050	     -5.06222864	     -0.66036776	    -12.98114594	     24.83416228	    100.54805974	     23.18700571	    -15.05723410	    -14.93470297	     49.40561262	    102.89935619
      1.02000000	     -5.02131422	      1.26941541	      2.75114551	      1.16216666	      0.93677612	     -0.20407993	     29.21485227	      0.78852325	     -5.62143519	      0.75189143	      0.01312298	      1.16633517	     -3.04588888	     -7.33647365	     -9.02427262	      5.06162817	     -9.16422326	      2.48991878	      0.04345728	     18.34588034	      3.14010988	     -7.33647365	     -0.11013680	     -5.37752977	    -12.65800748	     -5.36094152	     -0.63468656	    -13.41851418	     24.14884136	    100.36311692	     23.98099888	    -15.33511497	    -14.45514712	     50.44110216	    103.10996565
      1.03000000	     -5.21221746	      1.41324216	      2.66163852	      1.17354188	      0.93450967	     -0.20341972	     29.63288869	      0.70497973	     -5.87633713	      0.57093776	      0.00996474	      1.69566853	     -2.50963860	     -7.33791486	     -9.37941377	      5.10926634	     -9.12511571	      2.92225368	      0.05100295	     18.44959215	      2.97908224	     -7.33791486	      0.05843205	     -5.53816279	    -12.59457777	     -5.73868485	     -0.65425162	    -13.63411551	     23.62120295	    100.26373477	     24.79980671	    -15.35792797	    -14.26025517	     51.28619481	    103.23776108
      1.04000000	     -5.33412431	      1.38308229	      2.63526505	      1.18533600	      0.93257034	     -0.20277716	     29.78430162	      0.77904857	     -5.79872157	      0.55772843	      0.00973420	      1.87709235	     -2.16046941	     -7.33890752	     -9.77284786	      4.94603674	     -9.06947192	      3.46159304	      0.06041620	     18.52189678	      2.79973905	     -7.33890752	      0.16610299	     -5.46160062	    -12.64373337	     -6.09926420	     -0.74988738	    -13.83250296	     23.05733558	    100.17746009	     25.45657106	    -15.36059703	    -14.07094208	     52.06119709	    103.34811535
      1.05000000	     -5.37178132	      1.21738131	      2.67483859	      1.19743619	      0.93100805	     -0.20210863	     29.69197207	      0.96443670	     -5.55664486	      0.69654774	      0.01215705	      1.66997145	     -2.05725244	     -7.33981534	    -10.20092192	      4.58768843	     -9.03426846	      4.10712737	      0.07168290	     18.55041114	      2.60325910	     -7.33981534	      0.25082990	     -5.24353942	    -12.73285967	     -6.37936908	     -0.81781851	    -14.01298555	     22.46998021	    100.09530347	     25.94307805	    -15.29377984	    -13.87576786	     52.80935391	    103.45280791
      1.06000000	     -5.31075678	      0.94515177	      2.74576684	      1.20980800	      0.92982641	     -0.20130605	     29.40737694	      1.28093435	     -5.12745960	      0.99901244	      0.01743606	      0.41475878	     -3.01898211	     -7.34265806	    -10.61726202	      4.06429563	     -9.31059685	      4.98575294	      0.08701780	     18.68466691	      2.26136198	     -7.34265806	      0.21643417	     -4.91091730	    -12.97212121	     -6.41670341	     -0.86876244	    -14.27395881	     21.50303848	     99.93100874	     26.10561881	    -15.31518810	    -13.71346818	     53.87802961	    103.61169563
      1.07000000	     -5.25018876	      0.56717650	      2.84454742	      1.22246109	      0.92887647	     -0.20047443	     29.09860117	      1.69174230	     -4.56034511	      1.54293797	      0.02692935	     -1.19416155	     -4.54466629	     -7.34521413	    -10.97866707	      3.38935652	     -9.55264443	      5.98709434	      0.10449451	     18.50938066	      2.10647067	     -7.34521413	      0.19683151	     -4.42921548	    -13.05916497	     -6.63483379	     -1.00792699	    -14.31600033	     20.77986518	     99.83187799	     26.26745108	    -15.07272458	    -13.70729861	     54.83468213	    103.72791812
      1.08000000	     -5.27701396	      0.14368428	      2.84960418	      1.23520356	      0.92801703	     -0.19930206	     28.78221040	      2.28158493	     -2.61374464	      2.05645505	      0.03589191	     -4.30577560	     -8.80891571	     -7.35542591	    -11.21848284	      2.64884438	     -9.92463178	      7.02742625	      0.12265173	     18.39851976	      2.41726834	     -7.35542591	      0.33649895	     -3.91917759	    -13.31520540	     -6.66968750	     -1.20064602	    -13.64952373	     19.94873354	     99.68657535	     26.06655983	    -14.90627859	    -14.05736361	     55.85057328	    103.85473139
      1.09000000	     -5.07789950	     -0.41673645	      2.99290891	      1.24826976	      0.92783264	     -0.19835070	     28.41438860	      2.84867589	     -2.82996468	      3.07041656	      0.05358888	     -5.51880118	     -9.49347404	     -7.35715769	    -11.59982402	      1.72050435	    -10.18153276	      8.25417893	      0.14406260	     17.91146362	      2.10482339	     -7.35715769	      0.18633475	     -3.22836582	    -13.35788340	     -6.85487574	     -1.34922892	    -13.67946742	     19.35351149	     99.62469243	     26.06993337	    -14.56259993	    -13.86168520	     56.59444278	    103.94506013
      1.10000000	     -4.95781643	     -1.06299528	      3.18248210	      1.26144304	      0.92782363	     -0.19727070	     27.97271919	      3.54910386	     -2.21893705	      3.79634836	      0.06625878	     -8.21305515	    -12.35565356	     -7.36379850	    -11.80957456	      0.66044660	    -10.30972411	      9.61559128	      0.16782373	     17.38480761	      1.98014231	     -7.36379850	      0.16777262	     -2.46087194	    -13.78203531	     -6.74508589	     -1.49018826	    -13.29680930	     18.53430394	     99.54160176	     25.51761291	    -14.28390629	    -14.23321368	     57.78717746	    104.02628889
      1.11000000	     -4.64776069	     -1.70837192	      3.39418456	      1.27484967	      0.92831040	     -0.19630301	     27.46422421	      4.17677737	     -2.79004998	      4.86556225	      0.08492008	     -8.98720761	    -13.14076841	     -7.36556092	    -12.10513181	     -0.42670744	    -10.51010629	     11.20024292	      0.19548112	     16.60377891	      1.51044362	     -7.36556092	     -0.06983661	     -1.64743895	    -13.81285613	     -6.90958152	     -1.68371368	    -13.25775485	     18.07738613	     99.49261408	     25.30716376	    -13.87225272	    -14.01583525	     58.39884988	    104.10498433
      1.12000000	     -4.34994894	     -2.36455654	      3.64766576	      1.28820803	      0.92902384	     -0.19528633	     26.94168233	      4.81700652	     -3.13803276	      5.94012578	      0.10367475	     -9.49610237	    -13.73857837	     -7.36643311	    -12.31264699	     -1.52295831	    -10.27160518	     12.84819278	      0.22424327	     15.74760580	      1.20311686	     -7.36643311	     -0.30767009	     -0.84267374	    -13.85895997	     -7.02109501	     -1.82275618	    -13.28054178	     17.69935339	     99.45291045	     25.03614219	    -13.41154143	    -13.81579320	     58.97082569	    104.17921591
      1.13000000	     -4.08043522	     -3.04533607	      4.07283460	      1.30167561	      0.92995306	     -0.19440461	     26.46657364	      5.40691175	     -4.27804610	      6.98398187	      0.12189348	    -10.31657091	    -15.04939172	     -7.36853451	    -12.15137888	     -2.76246567	    -10.20217490	     15.05183012	      0.26270399	     14.57562912	      0.17848681	     -7.36853451	     -0.46032722	     -0.01685798	    -14.24563379	     -6.96247674	     -1.92883250	    -13.25857084	     17.15573263	     99.37864698	     24.29702360	    -13.06242488	    -13.74968451	     59.87344556	    104.28946734
      1.14000000	     -3.81019957	     -3.67199393	      4.46498152	      1.31497170	      0.93102001	     -0.19327237	     25.98840033	      6.01151333	     -5.01270645	      8.09088251	      0.14121254	    -10.51203931	    -16.09430622	     -7.37046476	    -11.85174662	     -3.94430353	     -9.75640215	     17.42128972	      0.30405887	     13.19378762	     -0.84002054	     -7.37046476	     -0.65410705	      0.67115379	    -14.48624176	     -6.91594742	     -1.96547620	    -13.16637333	     16.70401564	     99.31208219	     23.64884691	    -12.65349072	    -13.65997444	     60.67309953	    104.40291754
      1.15000000	     -3.64533464	     -4.17993857	      4.80366672	      1.32829622	      0.93209082	     -0.19213856	     25.63588910	      6.50889068	     -5.62687067	      9.28525607	      0.16205829	    -10.42230793	    -16.93373593	     -7.37335423	    -11.30517320	     -4.92580639	     -8.96052446	     19.94969684	      0.34818789	     11.40421622	     -2.32443948	     -7.37335423	     -0.66084216	      1.29809216	    -14.74101496	     -6.82099792	     -2.05370146	    -12.91576814	     16.20565520	     99.21941918	     22.74592800	    -12.31755688	    -13.60420690	     61.46976744	    104.55255282
